<svg width="31" height="31" viewBox="0 0 31 31" fill="none" xmlns="http://www.w3.org/2000/svg">
<path d="M24.875 10.0488C24.875 9.54102 24.4453 9.11133 23.9375 9.11133H7.0625C6.51562 9.11133 6.125 9.54102 6.125 10.0488V10.9863H24.875V10.0488ZM24.25 6.92383C24.25 6.41602 23.8203 5.98633 23.3125 5.98633H7.6875C7.14062 5.98633 6.75 6.41602 6.75 6.92383V7.86133H24.25V6.92383ZM24.25 12.2363H6.75C6.04688 12.2363 5.5 12.8223 5.5 13.4863C5.5 13.5254 5.5 13.5645 5.5 13.6035L6.51562 24.8535C6.55469 25.5176 7.10156 25.9863 7.76562 25.9863H23.1953C23.8594 25.9863 24.4062 25.5176 24.4453 24.8535L25.4609 13.6035C25.4609 13.5645 25.5 13.5254 25.5 13.4863C25.5 12.8223 24.9141 12.2363 24.25 12.2363ZM22.6484 24.1113H8.3125L7.41406 14.1113H23.5469L22.6484 24.1113ZM15.5 23.4863C18.625 23.4863 21.2812 21.7285 21.4375 19.4238C21.5938 17.002 18.9375 14.9707 15.4609 14.9707C12.0234 14.9707 9.36719 17.041 9.52344 19.4238C9.67969 21.7285 12.3359 23.4863 15.5 23.4863ZM15.5 18.7988C16.0469 18.7988 16.5156 19.1504 16.5156 19.541C16.5156 19.9707 16.0469 20.2832 15.5 20.2832C14.9141 20.2832 14.4844 19.9707 14.4453 19.541C14.4453 19.1504 14.9141 18.7988 15.5 18.7988Z" fill="#A4A4A4"/>
</svg>
