<svg width="18" height="18" viewBox="0 0 18 18" fill="none" xmlns="http://www.w3.org/2000/svg">
<g id="map:casino" clip-path="url(#clip0_299_601)">
<path id="Vector" d="M17.16 3.73326C17.3654 3.57788 17.5 3.33444 17.5 3.057C17.5 2.83157 17.4104 2.61537 17.251 2.45596C17.0916 2.29656 16.8754 2.207 16.65 2.207C16.4246 2.207 16.2084 2.29656 16.049 2.45596C15.8896 2.61537 15.8 2.83157 15.8 3.057C15.8003 3.18837 15.8312 3.31787 15.8902 3.43525C15.9492 3.55262 16.0347 3.65465 16.14 3.73326V9.007H13.08V11.727H16.48V11.626C16.731 11.5248 16.9461 11.3508 17.0975 11.1265C17.249 10.9022 17.3299 10.6377 17.33 10.367C17.33 10.1321 17.2651 9.91412 17.16 9.72134V3.73326ZM2.54 5.947C2.88714 5.947 3.1282 6.00548 3.56 5.947C3.56 5.947 2.19456 6.85344 2.19456 7.987H3.9C3.9 7.987 3.90204 6.09864 4.92 4.927L4.58 4.587C4.58 4.587 3.9 4.927 3.22 4.587C3.22 4.587 2.54 4.587 1.86 4.927V4.587H1.52V6.627H1.86C1.86 6.627 1.86 5.947 2.54 5.947ZM7.3 5.947C7.64714 5.947 7.8882 6.00548 8.32 5.947C8.32 5.947 6.95456 6.85344 6.95456 7.987H8.66C8.66 7.987 8.66204 6.09864 9.68 4.927L9.34 4.587C9.34 4.587 8.66 4.927 7.98 4.587C7.98 4.587 7.3 4.587 6.62 4.927V4.587H6.28V6.627H6.62C6.62 6.627 6.62 5.947 7.3 5.947ZM13.42 2.547V1.867H9.2992C9.14416 1.18632 8.53794 0.677002 7.81 0.677002C7.08206 0.677002 6.47584 1.18632 6.3208 1.867H2.2V2.547H0.5V16.487H15.46V2.547H13.42ZM5.94 3.907H10.02V8.667H5.94V3.907ZM1.18 3.907H5.26V8.667H1.18V3.907ZM13.42 14.787H2.2V12.407H13.42V14.787ZM14.78 8.667H10.7V3.907H14.78V8.667ZM12.06 5.947C12.4071 5.947 12.6482 6.00548 13.08 5.947C13.08 5.947 11.7146 6.85344 11.7146 7.987H13.42C13.42 7.987 13.422 6.09864 14.44 4.927L14.1 4.587C14.1 4.587 13.42 4.927 12.74 4.587C12.74 4.587 12.06 4.587 11.38 4.927V4.587H11.04V6.627H11.38C11.38 6.627 11.38 5.947 12.06 5.947Z" fill="currentColor"/>
</g>
<defs>
<clipPath id="clip0_299_601">
<rect width="17" height="17" fill="white" transform="translate(0.5 0.166992)"/>
</clipPath>
</defs>
</svg>
