<svg width="20" height="25" viewBox="0 0 20 25" fill="none" xmlns="http://www.w3.org/2000/svg">
<g id="Frame 1410">
<path id="Vector" d="M16.9329 16.3901L14.4419 18.1254C14.1925 17.8152 13.8665 17.5751 13.496 17.4287C13.1255 17.2822 12.7231 17.2344 12.3285 17.29L9.78825 17.6487C9.39118 17.7044 8.98665 17.6701 8.60466 17.5485L8.3248 17.4591C7.6226 17.233 6.87647 17.1773 6.14835 17.2966C5.42024 17.4158 4.73115 17.7067 4.1383 18.145L4.06389 17.6203C4.04938 17.518 3.99471 17.4256 3.91192 17.3635C3.82913 17.3014 3.725 17.2746 3.62243 17.2891L0.836833 17.6825C0.734266 17.6969 0.641665 17.7515 0.579403 17.8341C0.517141 17.9167 0.490317 18.0206 0.504831 18.1229L1.37009 24.2219C1.38325 24.3148 1.42956 24.3999 1.50052 24.4614C1.57147 24.523 1.6623 24.557 1.75633 24.5571C1.77481 24.5571 1.79326 24.5558 1.81155 24.5532L4.5971 24.1598C4.69967 24.1453 4.79227 24.0908 4.85453 24.0082C4.91679 23.9256 4.94362 23.8217 4.9291 23.7193L4.89063 23.4481L5.52895 22.954C5.77854 22.7603 6.09379 22.6708 6.40822 22.7045L10.9142 23.1807C10.9229 23.1817 10.9316 23.1823 10.9403 23.1826C11.9573 23.2194 12.9595 22.931 13.8005 22.3593C13.8158 22.3489 13.8302 22.3374 13.8439 22.325L19.3955 17.2438C19.4689 17.1767 19.5138 17.0841 19.521 16.9851C19.5283 16.886 19.4974 16.7879 19.4346 16.7108C19.1388 16.3469 18.7139 16.1105 18.2481 16.0508C17.7823 15.991 17.3113 16.1126 16.9329 16.3901ZM2.08882 23.7271L1.33303 18.3996L3.34516 18.1152L4.1009 23.4426L2.08882 23.7271ZM13.3368 21.7316C12.6426 22.197 11.8191 22.4324 10.9832 22.4043L6.49054 21.9295C5.97546 21.8741 5.45897 22.0207 5.05023 22.3383L4.76456 22.5594L4.26656 19.0498C4.76985 18.5818 5.38932 18.2563 6.0609 18.1072C6.73248 17.9581 7.4318 17.9906 8.08654 18.2015L8.36635 18.2909C8.86057 18.4482 9.38391 18.4925 9.89761 18.4206L12.4381 18.0616C12.7691 18.0154 13.1061 18.0792 13.397 18.2433C13.6879 18.4074 13.9165 18.6626 14.0474 18.9694L10.309 19.4974C10.2577 19.504 10.2083 19.5207 10.1635 19.5465C10.1188 19.5724 10.0796 19.6068 10.0483 19.6478C10.017 19.6888 9.99417 19.7357 9.98113 19.7856C9.96809 19.8355 9.96511 19.8874 9.97235 19.9385C9.97959 19.9896 9.99692 20.0387 10.0233 20.083C10.0497 20.1273 10.0847 20.166 10.1262 20.1967C10.1677 20.2275 10.2149 20.2497 10.265 20.2621C10.3152 20.2745 10.3673 20.2769 10.4184 20.2691L14.5941 19.6794C14.6966 19.6649 14.7892 19.6104 14.8515 19.5278C14.9138 19.4452 14.9406 19.3413 14.9261 19.2389C14.9053 19.0933 14.8706 18.95 14.8223 18.811L17.384 17.0264C17.3868 17.0245 17.3895 17.0225 17.3923 17.0205C17.5578 16.8983 17.7558 16.8275 17.9615 16.817C18.1671 16.8065 18.3713 16.8567 18.5485 16.9613L13.3368 21.7316Z" fill="#E9C348"/>
<path id="Vector_2" d="M11.4313 16.5693C15.8557 16.5693 19.4553 12.9779 19.4553 8.56334C19.4553 4.14882 15.8556 0.557373 11.4313 0.557373C7.00691 0.557373 3.40723 4.14887 3.40723 8.56334C3.40723 12.9778 7.00681 16.5693 11.4313 16.5693ZM5.8638 8.95267C5.94766 10.1582 6.42386 11.3033 7.21998 12.214L6.04367 13.3877C4.9381 12.1636 4.28696 10.5981 4.199 8.95267H5.8638ZM7.77242 12.7652C8.68398 13.5586 9.83006 14.0336 11.0367 14.1181V15.7792C9.38915 15.6905 7.82181 15.041 6.59606 13.939L7.77242 12.7652ZM11.8179 14.1186C13.0353 14.0349 14.1914 13.5539 15.1076 12.7497L16.2839 13.9234C15.0537 15.0365 13.4763 15.6921 11.8179 15.7796V14.1186ZM15.6578 12.1964C16.4449 11.2885 16.9155 10.1503 16.9988 8.95267H18.6637C18.5761 10.5901 17.9308 12.1487 16.8345 13.3704L15.6578 12.1964ZM16.9987 8.17324C16.9147 6.96803 16.4385 5.82316 15.6426 4.91271L16.8189 3.73904C17.9242 4.96293 18.5753 6.52811 18.6635 8.17324H16.9987ZM15.0902 4.36156C14.1765 3.56643 13.0274 3.09115 11.8179 3.00813V1.34698C13.4683 1.43402 15.0387 2.08384 16.2665 3.18774L15.0902 4.36156ZM11.0367 3.00867C9.83798 3.09259 8.69879 3.56194 7.78995 4.34636L6.61329 3.17235C7.83665 2.07952 9.39708 1.43584 11.0367 1.34766V3.00867ZM11.4313 3.77397C12.3807 3.77397 13.3087 4.05486 14.0981 4.58112C14.8875 5.10739 15.5027 5.85538 15.8661 6.73053C16.2294 7.60567 16.3244 8.56866 16.1392 9.49771C15.954 10.4268 15.4968 11.2801 14.8255 11.9499C14.1542 12.6198 13.2989 13.0759 12.3677 13.2607C11.4366 13.4455 10.4714 13.3506 9.59433 12.9882C8.71722 12.6257 7.96754 12.0118 7.44009 11.2242C6.91264 10.4366 6.63111 9.51059 6.63111 8.56334C6.63255 7.29356 7.13874 6.0762 8.03863 5.17832C8.93853 4.28045 10.1586 3.7754 11.4313 3.77397ZM6.05909 3.72165L7.23541 4.89537C6.43039 5.8084 5.94848 6.96013 5.86385 8.17324H4.19895C4.28752 6.52011 4.94446 4.94795 6.05909 3.72165Z" fill="#E9C348"/>
<path id="Vector_3" d="M11.1061 12.0733C11.1418 12.1266 11.1901 12.1702 11.2467 12.2004C11.3034 12.2306 11.3666 12.2464 11.4308 12.2464C11.495 12.2464 11.5582 12.2306 11.6148 12.2004C11.6715 12.1702 11.7198 12.1266 11.7555 12.0733L13.961 8.77954C14.004 8.71545 14.0269 8.6401 14.0269 8.56303C14.0269 8.48595 14.004 8.4106 13.961 8.34652L11.7557 5.05271C11.72 4.99946 11.6717 4.95581 11.615 4.92562C11.5584 4.89543 11.4952 4.87964 11.431 4.87964C11.3668 4.87964 11.3036 4.89543 11.2469 4.92562C11.1903 4.95581 11.142 4.99946 11.1063 5.05271L8.90078 8.34652C8.85787 8.4106 8.83496 8.48595 8.83496 8.56303C8.83496 8.6401 8.85787 8.71545 8.90078 8.77954L11.1061 12.0733ZM11.4309 5.97097L13.1667 8.56329L11.4309 11.1556L9.6951 8.56305L11.4309 5.97097Z" fill="#E9C348"/>
</g>
</svg>
