<svg width="18" height="18" viewBox="0 0 24 24" fill="none" xmlns="http://www.w3.org/2000/svg">
<g id="fluent:live-20-filled">
<path id="Vector" d="M6.544 5.00041C6.46389 4.91867 6.36845 4.85351 6.26315 4.80867C6.15784 4.76382 6.04473 4.74017 5.93029 4.73905C5.81584 4.73794 5.70229 4.75939 5.59613 4.80217C5.48997 4.84496 5.39329 4.90824 5.3116 4.98841C4.38754 5.9071 3.65453 6.99968 3.15487 8.2031C2.65522 9.40653 2.39879 10.697 2.4004 12C2.3989 13.353 2.6755 14.6919 3.21304 15.9336C3.75058 17.1753 4.53758 18.2932 5.5252 19.218C5.69142 19.3717 5.91099 19.4545 6.13728 19.4489C6.36358 19.4433 6.57878 19.3497 6.7372 19.188C7.1164 18.8088 7.0696 18.2052 6.7048 17.856C5.9122 17.1007 5.28147 16.192 4.85094 15.1853C4.42041 14.1786 4.19908 13.0949 4.2004 12C4.2004 9.78481 5.0896 7.77601 6.532 6.31441C6.88 5.96041 6.916 5.37241 6.544 5.00041ZM8.6572 7.11601C8.49916 6.95339 8.2831 6.86006 8.05637 6.85646C7.82963 6.85286 7.61072 6.93929 7.4476 7.09681C6.79834 7.73756 6.28299 8.50102 5.93153 9.34279C5.58007 10.1846 5.39953 11.0878 5.4004 12C5.39899 12.9645 5.60051 13.9185 5.99187 14.8001C6.38323 15.6816 6.95567 16.4709 7.672 17.1168C7.8367 17.2623 8.05107 17.3389 8.27068 17.3306C8.4903 17.3223 8.69831 17.2299 8.8516 17.0724C9.2452 16.6788 9.172 16.0596 8.8024 15.7116C8.29577 15.2354 7.89221 14.6603 7.61666 14.0219C7.34111 13.3835 7.19944 12.6953 7.2004 12C7.2004 10.62 7.7488 9.36721 8.6404 8.44801C8.9836 8.09521 9.04 7.49761 8.6572 7.11601ZM15.3436 7.11601C15.5016 6.95339 15.7177 6.86006 15.9444 6.85646C16.1712 6.85286 16.3901 6.93929 16.5532 7.09681C17.2025 7.73756 17.7178 8.50102 18.0693 9.34279C18.4207 10.1846 18.6013 11.0878 18.6004 12C18.6018 12.9645 18.4003 13.9185 18.0089 14.8001C17.6176 15.6816 17.0451 16.4709 16.3288 17.1168C16.1641 17.2623 15.9497 17.3389 15.7301 17.3306C15.5105 17.3223 15.3025 17.2299 15.1492 17.0724C14.7556 16.6788 14.8288 16.0596 15.1984 15.7116C15.705 15.2354 16.1086 14.6603 16.3841 14.0219C16.6597 13.3835 16.8014 12.6953 16.8004 12C16.8004 10.62 16.252 9.36721 15.3604 8.44801C15.0172 8.09521 14.9608 7.49761 15.3436 7.11601ZM17.4568 5.00161C17.5369 4.91987 17.6323 4.85471 17.7377 4.80987C17.843 4.76502 17.9561 4.74137 18.0705 4.74026C18.185 4.73914 18.2985 4.76059 18.4047 4.80337C18.5108 4.84616 18.6075 4.90944 18.6892 4.98961C19.6131 5.90816 20.346 7.00054 20.8457 8.20375C21.3453 9.40696 21.6018 10.6972 21.6004 12C21.6019 13.353 21.3253 14.6919 20.7878 15.9336C20.2502 17.1753 19.4632 18.2932 18.4756 19.218C18.3094 19.3717 18.0898 19.4545 17.8635 19.4489C17.6372 19.4433 17.422 19.3497 17.2636 19.188C16.8844 18.8088 16.9312 18.2052 17.2972 17.856C18.0896 17.1005 18.7201 16.1919 19.1504 15.1852C19.5807 14.1785 19.8019 13.0948 19.8004 12C19.8004 9.78481 18.9112 7.77601 17.4688 6.31441C17.1208 5.96041 17.0848 5.37241 17.4568 5.00041V5.00161ZM12.0004 10.2C11.523 10.2 11.0652 10.3897 10.7276 10.7272C10.39 11.0648 10.2004 11.5226 10.2004 12C10.2004 12.4774 10.39 12.9352 10.7276 13.2728C11.0652 13.6104 11.523 13.8 12.0004 13.8C12.4778 13.8 12.9356 13.6104 13.2732 13.2728C13.6108 12.9352 13.8004 12.4774 13.8004 12C13.8004 11.5226 13.6108 11.0648 13.2732 10.7272C12.9356 10.3897 12.4778 10.2 12.0004 10.2Z" fill="#FF0000"/>
</g>
</svg>
