<svg viewBox="0 0 40 22" fill="none" xmlns="http://www.w3.org/2000/svg">
<g id="Component 2dsd" filter="url(#filter0_d_299_322)">
<g id="Group">
<g id="Group_2">
<path id="Vector" d="M25.4233 9.52053L25.3001 9.2603L25.0479 9.3992L22.406 10.8543C22.4058 10.8543 22.4057 10.8544 22.4056 10.8544C22.1291 11.0055 21.8161 11.0854 21.501 11.0854C21.1858 11.0854 20.8726 11.0054 20.596 10.8542L17.9494 9.40744L17.6975 9.26977L17.5747 9.52917L16.2842 12.2542C16.0078 12.838 15.4613 13.2351 14.8208 13.3179L11.8195 13.7058L11.5344 13.7427L11.5882 14.0251L12.1525 16.9882C12.1525 16.9883 12.1525 16.9885 12.1526 16.9886C12.271 17.6219 12.0626 18.2633 11.5944 18.7061C11.5944 18.7061 11.5944 18.7061 11.5944 18.7061L9.39537 20.7857L9.18664 20.9831L9.396 21.1799L11.5943 23.2456C11.5943 23.2457 11.5944 23.2457 11.5945 23.2458C12.0626 23.6886 12.271 24.3301 12.1524 24.9636L11.5957 27.9381L11.5428 28.2207L11.828 28.2566L14.8207 28.6338C14.8209 28.6338 14.821 28.6339 14.8211 28.6339C15.4614 28.7168 16.0077 29.1139 16.2841 29.6975L17.5787 32.4314L17.7019 32.6916L17.9541 32.5527L20.596 31.0976C20.5961 31.0976 20.5962 31.0975 20.5963 31.0975C20.8728 30.9464 21.1859 30.8664 21.501 30.8664C21.8162 30.8664 22.1294 30.9465 22.406 31.0977L22.5359 30.86L22.406 31.0977L25.061 32.549L25.3137 32.6872L25.4361 32.4265L26.7177 29.6977C26.7178 29.6975 26.7179 29.6974 26.7179 29.6972C26.9944 29.1137 27.5408 28.7167 28.1811 28.634L31.1824 28.2461L31.4676 28.2092L31.4138 27.9268L30.8495 24.9637C30.8494 24.9634 30.8494 24.9632 30.8493 24.9629C30.7311 24.3296 30.9396 23.6884 31.4077 23.2457L31.4077 23.2457L33.6066 21.1661L33.8153 20.9687L33.6059 20.772L31.4077 18.7063C31.4076 18.7062 31.4075 18.7061 31.4074 18.706C30.9393 18.2631 30.731 17.6217 30.8495 16.9883L31.4063 14.0138L31.4592 13.7312L31.174 13.6952L28.1813 13.3181C28.1811 13.318 28.181 13.318 28.1808 13.318C27.5405 13.2351 26.9942 12.8379 26.7179 12.2543L26.4731 12.3702L26.7179 12.2543L25.4233 9.52053ZM15.7947 12.0224L15.7947 12.0224L17.0892 9.28867C17.227 8.9978 17.5157 8.82882 17.8165 8.82882C17.9461 8.82882 18.0776 8.86024 18.2008 8.92755L20.8558 10.3789C21.0568 10.4888 21.279 10.5438 21.501 10.5438C21.7231 10.5438 21.9452 10.4888 22.1462 10.379C22.1462 10.379 22.1462 10.379 22.1462 10.3789L24.8014 8.92757C24.9244 8.86031 25.0561 8.82886 25.1857 8.82885C25.4865 8.82882 25.7751 8.99776 25.9129 9.28869L26.1574 9.17291L25.9129 9.2887L27.2075 12.0225C27.4034 12.4364 27.7966 12.7221 28.2507 12.7809L31.252 13.1688C31.7098 13.228 32.0237 13.6598 31.9387 14.1134L32.2049 14.1633L31.9387 14.1134L31.382 17.0879C31.2978 17.5373 31.4477 17.9986 31.7799 18.3127L33.9788 20.3922C34.3139 20.7092 34.3139 21.2427 33.9788 21.5597L31.7798 23.6393C31.4477 23.9534 31.2978 24.4147 31.3819 24.864L31.6481 24.8142L31.3819 24.864L31.9386 27.8387C32.0235 28.2923 31.7096 28.7241 31.2519 28.7833L28.2506 29.1712C27.7964 29.2299 27.4033 29.5156 27.2073 29.9295L27.452 30.0454L27.2073 29.9295L25.9127 32.6632C25.775 32.9541 25.4863 33.1231 25.1855 33.1231C25.0559 33.1231 24.9243 33.0916 24.8012 33.0243L22.1462 31.5729L22.0163 31.8106L22.1462 31.5729C21.9452 31.4631 21.723 31.4081 21.501 31.4081C21.2789 31.4081 21.0568 31.4631 20.8558 31.5729L20.8558 31.5729L18.2006 33.0243C18.0775 33.0916 17.9458 33.123 17.8163 33.123C17.5155 33.123 17.2269 32.9541 17.0891 32.6632L16.8443 32.7791L17.0891 32.6632L15.7945 29.9294L15.5498 30.0453L15.7945 29.9293C15.5985 29.5155 15.2054 29.2297 14.7513 29.171L11.75 28.7831C11.2922 28.7239 10.9783 28.2921 11.0632 27.8384L11.62 24.8639C11.7041 24.4146 11.5543 23.9533 11.2221 23.6392L9.0232 21.5597C8.68801 21.2427 8.68801 20.7092 9.0232 20.3922L11.2222 18.3126L11.2222 18.3126C11.5543 17.9985 11.7042 17.5372 11.6201 17.0878L11.0634 14.1132L10.7971 14.163L11.0634 14.1132C10.9784 13.6596 11.2924 13.2278 11.7501 13.1686L14.7514 12.7807C15.2056 12.722 15.5987 12.4363 15.7947 12.0224Z" stroke="#00DAF4" strokeWidth="0.541667"/>
</g>
<g id="Group_3">
<g id="Group_4">
<path id="Vector_2" d="M14.5216 19.6464V23.0318H14.473V18.9206H14.5216V19.6464ZM15.0176 19.4959L14.6332 18.9206H14.6891L17.0525 22.4534L17.4394 23.0318H17.3811L15.0176 19.4959ZM17.5971 23.0318H17.5484V22.3029V18.9206H17.5971V23.0318Z" stroke="#00DAF4" strokeWidth="0.541667"/>
</g>
<g id="Group_5">
<path id="Vector_3" d="M19.2599 22.7535V23.0244H19.5308H22.1164V23.0318H19.1859V18.9206H22.0085V18.928H19.5308H19.2599V19.1989V20.6239V20.8947H19.5308H21.8339V20.899H19.5308H19.2599V21.1698V22.7535Z" stroke="#00DAF4" strokeWidth="0.541667"/>
</g>
<g id="Group_6">
<path id="Vector_4" d="M26.5953 21.0794C26.6257 21.1857 26.6546 21.2906 26.6818 21.3944L26.5658 20.9752L26.5951 21.0786L26.5953 21.0794ZM25.9844 18.9207L26.0503 19.1537L25.5865 19.1517L25.6516 18.9207H25.9844ZM24.5615 22.7132L24.4727 23.0319H24.2584L24.1707 22.7013L24.5615 22.7132ZM23.6802 20.8529L23.1675 18.9207H23.2318L23.6802 20.8529ZM27.1348 23.0319L27.0411 22.6933L27.4057 22.7034L27.3157 23.0319H27.1348ZM28.443 18.9207L27.9764 20.6222L28.3919 18.9207H28.443Z" stroke="#00DAF4" strokeWidth="0.541667"/>
</g>
</g>
</g>
</g>
<defs>
<filter id="filter0_d_299_322" x="0.500977" y="0.557983" width="42" height="41.7992" filterUnits="userSpaceOnUse" color-interpolation-filters="sRGB">
<feFlood flood-opacity="0" result="BackgroundImageFix"/>
<feColorMatrix in="SourceAlpha" type="matrix" values="0 0 0 0 0 0 0 0 0 0 0 0 0 0 0 0 0 0 127 0" result="hardAlpha"/>
<feOffset/>
<feGaussianBlur stdDeviation="4"/>
<feComposite in2="hardAlpha" operator="out"/>
<feColorMatrix type="matrix" values="0 0 0 0 0 0 0 0 0 0 0 0 0 0 0 0 0 0 0.45 0"/>
<feBlend mode="normal" in2="BackgroundImageFix" result="effect1_dropShadow_299_322"/>
<feBlend mode="normal" in="SourceGraphic" in2="effect1_dropShadow_299_322" result="shape"/>
</filter>
</defs>
</svg>
