<svg width="18" height="18" viewBox="0 0 27 27" fill="none" xmlns="http://www.w3.org/2000/svg">
<g id="so-soccer" clip-path="url(#clip0_695_1986)">
<path id="Vector" d="M26.3149 13.3605C26.3149 15.8921 25.5535 18.3669 24.127 20.4718C22.7004 22.5768 20.6728 24.2174 18.3005 25.1862C15.9283 26.155 13.3179 26.4085 10.7995 25.9146C8.2811 25.4207 5.96781 24.2016 4.15215 22.4115C2.33649 20.6214 1.10001 18.3407 0.599074 15.8577C0.0981345 13.3747 0.355235 10.8011 1.33786 8.4622C2.32049 6.1233 3.98451 4.12422 6.1195 2.71774C8.25449 1.31125 10.7646 0.560547 13.3323 0.560547C15.0372 0.560547 16.7254 0.891629 18.3005 1.53489C19.8757 2.17815 21.3069 3.12099 22.5124 4.30958C23.718 5.49817 24.6743 6.90923 25.3267 8.4622C25.9791 10.0152 26.3149 11.6796 26.3149 13.3605Z" fill="#00DAF4"/>
<path id="Vector_2" d="M23.6371 12.2306C22.9068 12.4694 22.1125 12.432 21.4086 12.1256C20.7047 11.8191 20.1416 11.2656 19.8286 10.5726C19.5157 9.87951 19.4754 9.0965 19.7154 8.37575C19.9555 7.65501 20.4588 7.04802 21.1275 6.67281C19.8675 5.24782 18.2311 4.19545 16.4005 3.63281C16.293 4.35969 15.9237 5.02412 15.3602 5.5046C14.7966 5.98508 14.0765 6.2495 13.3314 6.2495C12.5864 6.2495 11.8663 5.98508 11.3027 5.5046C10.7391 5.02412 10.3698 4.35969 10.2623 3.63281C8.43411 4.19652 6.80012 5.2488 5.54185 6.67281C6.21752 7.04412 6.72783 7.65124 6.97243 8.37476C7.21703 9.09829 7.17822 9.88586 6.86361 10.5826C6.54901 11.2793 5.98139 11.8348 5.27239 12.1398C4.56338 12.4447 3.7643 12.4771 3.0323 12.2306C2.97897 12.624 2.94993 13.0202 2.94531 13.4171C2.94675 15.5712 3.64384 17.6689 4.93556 19.4063C5.3751 18.9878 5.92971 18.7061 6.53041 18.596C7.1311 18.4859 7.75136 18.5524 8.31404 18.7872C8.87671 19.0219 9.35697 19.4146 9.69507 19.9163C10.0332 20.4181 10.2142 21.0068 10.2156 21.6091C10.2122 22.1099 10.0828 22.602 9.83911 23.0415C12.0929 23.8624 14.57 23.8624 16.8238 23.0415C16.5801 22.602 16.4507 22.1099 16.4473 21.6091C16.4487 21.0068 16.6297 20.4181 16.9678 19.9163C17.3059 19.4146 17.7862 19.0219 18.3489 18.7872C18.9115 18.5524 19.5318 18.4859 20.1325 18.596C20.7332 18.7061 21.2878 18.9878 21.7273 19.4063C23.0191 17.6689 23.7161 15.5712 23.7176 13.4171C23.7151 13.0204 23.6882 12.6241 23.6371 12.2306ZM13.3314 16.4891C12.7152 16.4891 12.1128 16.309 11.6004 15.9714C11.088 15.6339 10.6886 15.1541 10.4528 14.5927C10.217 14.0314 10.1553 13.4137 10.2755 12.8178C10.3957 12.2219 10.6925 11.6745 11.1282 11.2449C11.564 10.8153 12.1192 10.5227 12.7236 10.4042C13.328 10.2856 13.9545 10.3465 14.5238 10.579C15.0932 10.8115 15.5798 11.2052 15.9222 11.7104C16.2645 12.2156 16.4473 12.8095 16.4473 13.4171C16.4473 14.2319 16.119 15.0133 15.5347 15.5894C14.9503 16.1655 14.1578 16.4891 13.3314 16.4891Z" fill="#1E1B16"/>
</g>
<defs>
<clipPath id="clip0_695_1986">
<rect width="25.9653" height="25.6" fill="white" transform="translate(0.349609 0.560547)"/>
</clipPath>
</defs>
</svg>
