<svg width="17" height="17" viewBox="0 0 17 17" fill="none" xmlns="http://www.w3.org/2000/svg">
<g id="SVG" clip-path="url(#clip0_299_1507)">
<path id="Vector" d="M3.05316 7.18905C3.79551 6.8572 4.7008 6.55617 5.60261 6.34141L5.63745 6.33304C7.38398 5.90436 10.5588 5.74757 11.3858 5.73835C11.2895 5.30096 11.1837 4.91818 11.1215 4.70359C11.0224 4.72152 10.9084 4.73023 10.7745 4.73023C10.2737 4.73023 9.66861 4.60024 9.49506 4.56037C9.05734 4.49102 8.16699 4.11829 7.45168 3.81894C7.11469 3.67789 6.79644 3.54471 6.69158 3.5169C6.21504 3.37267 5.71129 3.2998 5.19277 3.2998C4.11077 3.2998 3.21942 3.60954 2.81075 3.7799C1.70452 5.06593 1.02738 6.73022 1 8.55314C1.448 8.05645 2.13393 7.5998 3.05316 7.18905Z" fill="currentColor"/>
<path id="Vector_2" d="M11.8242 4.68079C11.911 4.96691 12.0001 5.29424 12.1096 5.72694C14.05 5.75206 15.091 6.07504 15.6351 6.35931C15.2715 5.2346 14.6503 4.22615 13.8397 3.40381C13.7891 3.68138 13.6732 3.91959 13.4895 4.11307C13.0543 4.5719 12.3512 4.67643 11.8242 4.68079Z" fill="currentColor"/>
<path id="Vector_3" d="M6.79903 11.2438C7.17568 10.8288 8.67963 9.25733 8.95938 8.97489C9.70322 8.19192 10.6265 7.72186 11.6308 7.61415C11.598 6.95045 11.5329 6.5407 11.5082 6.40283C8.10303 6.45828 5.4084 7.2761 5.38152 7.28448C2.80918 7.97331 1.62646 9.2513 1.12305 10.0282C1.39981 11.5371 2.12689 12.8881 3.16177 13.9359C4.29471 13.4697 6.46386 11.5991 6.79903 11.2438Z" fill="currentColor"/>
<path id="Vector_4" d="M7.40391 2.84669C9.10482 3.762 10.2817 4.0039 10.6664 4.0039C10.79 4.00373 10.8462 3.98731 10.8686 3.97793C10.8661 3.96453 10.86 3.9399 10.8456 3.89551C10.8384 3.87373 10.8319 3.85296 10.8268 3.83403C10.0851 1.85599 8.83137 1.28492 8.50815 1.16733C8.5045 1.16733 8.50085 1.16699 8.4972 1.16699C6.96089 1.16699 5.5331 1.62951 4.34375 2.42169C4.58401 2.38769 4.83306 2.36976 5.08992 2.36976C6.1379 2.3701 7.04784 2.65505 7.40391 2.84669Z" fill="currentColor"/>
<path id="Vector_5" d="M11.1094 12.7531C11.6422 11.059 11.6967 9.10483 11.6399 8.74484C11.6112 8.56342 11.5287 8.54834 11.4395 8.54834C11.2719 8.54834 11.0434 8.64634 10.8922 8.71117C10.8168 8.74367 10.757 8.76913 10.7071 8.78337C9.54823 9.2757 8.09439 10.9137 7.31338 11.7935C7.13849 11.9905 7.00111 12.1451 6.90056 12.2498C5.53482 13.7029 4.64629 14.4004 4.07617 14.7239C5.3163 15.6305 6.84431 16.1669 8.49825 16.1669C8.50074 16.1669 8.50306 16.1667 8.50555 16.1667C9.6063 15.6407 10.4615 14.5187 11.1094 12.7531Z" fill="currentColor"/>
<path id="Vector_6" d="M12.2383 6.41462C12.2755 6.68533 12.2972 7.08737 12.3163 7.47852L12.3223 7.59813C13.904 7.62945 14.5243 8.78465 14.7293 9.16659L14.7478 9.20077C15.2201 10.0715 15.1679 11.4282 15.0716 12.281C15.6625 11.2091 15.9995 9.97754 15.9995 8.66706C15.9995 8.2692 15.968 7.87889 15.9082 7.49795C14.8548 6.52015 13.1282 6.41211 12.4223 6.41211C12.3525 6.41211 12.2907 6.41311 12.2383 6.41462Z" fill="currentColor"/>
<path id="Vector_7" d="M14.0114 9.49188C13.6017 8.77507 13.2425 8.55479 12.7606 8.41625C12.7059 8.4005 12.6561 8.39246 12.6123 8.39246C12.3823 8.39246 12.3662 8.65278 12.3655 8.66384C12.2499 11.8699 12.0103 12.6971 11.8354 13.3012L11.805 13.4065C11.5598 14.2694 11.1559 15.1276 10.6621 15.8486C12.1039 15.4151 13.3631 14.5607 14.2957 13.427C14.7751 11.5639 14.3515 10.0871 14.0114 9.49188Z" fill="currentColor"/>
<path id="Vector_8" d="M11.7815 3.98182C11.7967 3.98316 11.8115 3.9845 11.8259 3.986C12.3607 3.94362 12.7506 3.7823 12.976 3.50674C13.2197 3.20872 13.1855 2.86246 13.185 2.85895C13.1832 2.8437 13.1837 2.82829 13.1857 2.81338C12.3035 2.10629 11.2585 1.59503 10.1152 1.34375C10.8508 2.12204 11.3398 3.3687 11.4556 3.68347C11.5782 3.96406 11.6723 3.97227 11.7815 3.98182Z" fill="currentColor"/>
</g>
<defs>
<clipPath id="clip0_299_1507">
<rect width="16.5" height="16" fill="white" transform="translate(0.25 0.666992)"/>
</clipPath>
</defs>
</svg>
