<svg width="31" height="31" viewBox="0 0 31 31" fill="none" xmlns="http://www.w3.org/2000/svg">
<path d="M24.8751 12.7042L19.172 11.8839L16.5938 6.68855C16.1642 5.79012 14.836 5.75105 14.3673 6.68855L11.8282 11.8839L6.08604 12.7042C5.07041 12.8604 4.67979 14.1104 5.42197 14.8526L9.52354 18.8761L8.54697 24.5401C8.39072 25.5557 9.48447 26.337 10.3829 25.8682L15.5001 23.1729L20.5782 25.8682C21.4767 26.337 22.5704 25.5557 22.4142 24.5401L21.4376 18.8761L25.5392 14.8526C26.2813 14.1104 25.8907 12.8604 24.8751 12.7042ZM19.4063 18.212L20.3438 23.6026L15.5001 21.0636L10.6173 23.6026L11.5548 18.212L7.60947 14.3839L13.0392 13.6026L15.5001 8.68074L17.922 13.6026L23.3517 14.3839L19.4063 18.212Z" fill="#A4A4A4"/>
</svg>
