<svg width="25" height="26" viewBox="0 0 25 26" fill="none" xmlns="http://www.w3.org/2000/svg">
<g id="Group">
<path id="Vector" d="M17.1566 16.8461L17.0121 16.7011L15.5706 18.1436C15.2715 18.4288 14.8741 18.5879 14.4608 18.5879C14.0476 18.5879 13.6501 18.4288 13.3511 18.1436C13.0573 17.849 12.8923 17.4499 12.8923 17.0338C12.8923 16.6178 13.0573 16.2187 13.3511 15.9241L13.8276 15.4481C14.3769 14.8973 14.6854 14.151 14.6854 13.3731C14.6854 12.5951 14.3769 11.8489 13.8276 11.2981L12.9436 10.4126L9.24357 14.1126C8.66325 14.6932 8.22768 15.4023 7.97206 16.1824C7.71645 16.9625 7.64795 17.7918 7.77212 18.6033C7.89628 19.4148 8.20963 20.1857 8.68682 20.8537C9.16402 21.5217 9.79168 22.068 10.5191 22.4486C10.3925 22.1393 10.3274 21.8083 10.3276 21.4741C10.3276 20.7804 10.6031 20.1152 11.0936 19.6247C11.5841 19.1342 12.2494 18.8586 12.9431 18.8586C13.6367 18.8586 14.302 19.1342 14.7925 19.6247C15.283 20.1152 15.5586 20.7804 15.5586 21.4741C15.5587 21.8085 15.4937 22.1396 15.3671 22.4491C15.8376 22.2024 16.268 21.8858 16.6436 21.5101L17.1566 20.9966C17.4291 20.7241 17.6453 20.4007 17.7928 20.0446C17.9403 19.6886 18.0163 19.307 18.0163 18.9216C18.0163 18.5362 17.9403 18.1546 17.7928 17.7986C17.6453 17.4425 17.4291 17.1186 17.1566 16.8461Z" fill="#EEB0FF"/>
<path id="Vector_2" d="M9.8056 5.8021L9.80477 5.8021C9.80058 5.80211 9.79648 5.80095 9.79292 5.79876C9.78935 5.79656 9.78648 5.79341 9.7846 5.78967C9.78273 5.78593 9.78194 5.78174 9.78232 5.77757C9.7827 5.77341 9.78423 5.76943 9.78674 5.76608L9.78711 5.7656L12.9155 1.59422C12.9188 1.59108 12.9226 1.58849 12.9267 1.58654C12.9323 1.58389 12.9384 1.58252 12.9446 1.58252C12.9508 1.58252 12.9569 1.58389 12.9625 1.58654C12.9667 1.58849 12.9704 1.59108 12.9737 1.59422L16.1021 5.7656L16.1025 5.76608C16.105 5.76943 16.1065 5.77341 16.1069 5.77757C16.1073 5.78174 16.1065 5.78593 16.1046 5.78967C16.1027 5.79341 16.0999 5.79656 16.0963 5.79876C16.0927 5.80095 16.0886 5.80211 16.0844 5.8021H16.0836H15.0371H14.5371V6.3021V9.8185L13.6682 8.94955L13.6677 8.94905C13.4757 8.75764 13.2157 8.65015 12.9446 8.65015C12.6735 8.65015 12.4135 8.75764 12.2215 8.94905L12.221 8.9496L11.3521 9.81875V6.3021V5.8021H10.8521L9.8056 5.8021Z" stroke="#EEB0FF"/>
<path id="Vector_3" d="M12.9435 19.9048C12.6331 19.9048 12.3297 19.9968 12.0716 20.1693C11.8135 20.3418 11.6123 20.5869 11.4935 20.8737C11.3747 21.1605 11.3436 21.476 11.4042 21.7805C11.4647 22.0849 11.6142 22.3646 11.8337 22.5841C12.0532 22.8036 12.3329 22.9531 12.6373 23.0136C12.9418 23.0742 13.2574 23.0431 13.5441 22.9243C13.8309 22.8055 14.0761 22.6044 14.2485 22.3463C14.421 22.0881 14.513 21.7847 14.513 21.4743C14.5128 21.0581 14.3473 20.6591 14.053 20.3648C13.7588 20.0705 13.3597 19.9051 12.9435 19.9048Z" fill="#EEB0FF"/>
<path id="Vector_4" d="M22.9022 9.95092L22.9024 9.95113C22.905 9.95455 22.9065 9.95861 22.9069 9.96287C22.9073 9.96713 22.9065 9.97141 22.9046 9.97522C22.9027 9.97905 22.8997 9.98226 22.8961 9.98451C22.8925 9.98675 22.8883 9.98794 22.884 9.98794H22.8838H21.8378H21.3378V10.4879V22.5199V22.5204C21.3378 22.5234 21.3372 22.5264 21.336 22.5292C21.3356 22.5301 21.3352 22.531 21.3348 22.5318C21.3338 22.5336 21.3325 22.5352 21.331 22.5367C21.3289 22.5388 21.3264 22.5405 21.3236 22.5417L21.515 23.0036L21.3236 22.5417C21.3208 22.5428 21.3178 22.5434 21.3148 22.5434H18.1758C18.1727 22.5434 18.1697 22.5428 18.1669 22.5417C18.1641 22.5405 18.1616 22.5388 18.1595 22.5367C18.1573 22.5346 18.1557 22.532 18.1545 22.5292C18.1533 22.5264 18.1528 22.5234 18.1528 22.5204V22.5199V22.1885L18.2508 22.0905L18.2512 22.0901C19.0904 21.2492 19.5617 20.1097 19.5617 18.9217C19.5617 17.7337 19.0904 16.5942 18.2512 15.7533L18.2508 15.7529L18.1528 15.6548V10.4879V9.98794H17.6528H16.6063H16.606C16.6017 9.98794 16.5976 9.98675 16.5939 9.98451C16.5903 9.98226 16.5873 9.97904 16.5854 9.97522C16.5835 9.97141 16.5827 9.96713 16.5831 9.96287C16.5835 9.95861 16.585 9.95455 16.5876 9.95113L16.5877 9.95095L19.7164 5.77973C19.7197 5.77659 19.7234 5.77399 19.7275 5.77205C19.7331 5.76943 19.7391 5.76807 19.7453 5.76807C19.7514 5.76807 19.7575 5.76943 19.763 5.77205C19.7671 5.77399 19.7708 5.77658 19.7741 5.77972L22.9022 9.95092Z" stroke="#EEB0FF"/>
<path id="Vector_5" d="M8.2387 9.98794H7.73604L7.7387 10.4906L7.7537 13.3184V13.3197V13.466C6.73586 14.6834 6.17619 16.2215 6.17619 17.8124C6.17619 19.4034 6.73586 20.9414 7.7537 22.1589V22.5199V22.5204C7.7537 22.5234 7.75311 22.5264 7.75195 22.5292C7.7508 22.532 7.74911 22.5346 7.74697 22.5367C7.74484 22.5388 7.7423 22.5405 7.73951 22.5417C7.73671 22.5428 7.73371 22.5434 7.7307 22.5434H4.5737C4.57068 22.5434 4.56769 22.5428 4.56488 22.5417C4.56209 22.5405 4.55956 22.5388 4.55743 22.5367C4.55529 22.5346 4.55359 22.532 4.55244 22.5292C4.55129 22.5264 4.55069 22.5234 4.5507 22.5204V22.5199V10.4879V9.98794H4.0507H3.0047H3.00446C3.00018 9.98794 2.99599 9.98675 2.99236 9.98451C2.98872 9.98226 2.98578 9.97905 2.98387 9.97522C2.98196 9.9714 2.98115 9.96712 2.98154 9.96287C2.98192 9.95861 2.98349 9.95455 2.98605 9.95113L2.98621 9.95092L6.11436 5.77972C6.11761 5.77658 6.12135 5.77399 6.12546 5.77205C6.131 5.76943 6.13706 5.76807 6.1432 5.76807C6.14933 5.76807 6.15539 5.76943 6.16093 5.77205C6.16504 5.77399 6.16879 5.77659 6.17204 5.77973L9.30071 9.95095L9.30084 9.95113C9.3034 9.95455 9.30497 9.95861 9.30535 9.96287C9.30574 9.96713 9.30493 9.97141 9.30302 9.97522C9.30111 9.97904 9.29817 9.98226 9.29453 9.98451C9.2909 9.98675 9.28671 9.98794 9.28243 9.98794H9.2822H8.2387Z" stroke="#EEB0FF"/>
</g>
</svg>
