<svg width="18" height="18" viewBox="0 0 26 27" fill="none" xmlns="http://www.w3.org/2000/svg">
<g id="volleyball" clip-path="url(#clip0_695_2005)">
<g id="Vector">
<path d="M13.0012 26.1586C20.0704 26.1586 25.8012 20.4278 25.8012 13.3586C25.8012 6.28941 20.0704 0.558594 13.0012 0.558594C5.93199 0.558594 0.201172 6.28928 0.201172 13.3586C0.201172 20.4279 5.93199 26.1586 13.0012 26.1586ZM18.1975 22.9148C17.0694 23.5306 15.8174 23.9411 14.4935 24.124C16.0993 22.8509 18.2054 20.3914 18.4919 16.1267C18.5274 15.5973 18.9806 15.1923 19.5143 15.233C20.0431 15.2686 20.4431 15.7267 20.408 16.2555C20.215 19.1265 19.3021 21.2937 18.1975 22.9148ZM13.8855 5.87303C15.132 4.58739 16.6867 3.99603 18.2844 3.85536C19.2837 4.41319 20.1807 5.12768 20.9551 5.95955C19.2929 5.56531 16.957 5.46227 15.2643 7.20935C15.0762 7.40378 14.8256 7.50119 14.5749 7.50119C14.3343 7.50119 14.093 7.4112 13.9068 7.23059C13.5261 6.86183 13.5168 6.25357 13.8855 5.87303ZM10.1542 2.86925C10.9257 2.65959 11.7297 2.53453 12.5585 2.50099C11.369 4.18163 9.99228 7.52333 13.1177 11.9256C14.7322 10.5701 18.5254 8.24627 23.55 10.7428C23.7414 11.5139 23.8537 12.3146 23.8702 13.1402C18.4531 9.64557 14.7361 12.9362 13.9125 13.786C13.2217 19.5524 10.1259 21.8619 7.58088 22.7786C6.882 22.3748 6.23471 21.8949 5.64463 21.3513C7.8534 20.9885 11.2764 19.4781 12.0024 13.6467C8.45615 9.10285 8.9908 5.32237 10.1542 2.86925ZM4.9213 6.09792C5.02216 8.6185 5.56885 12.3066 7.63119 15.6916C7.90677 16.1441 7.76367 16.7347 7.31055 17.0111C7.1549 17.1061 6.98248 17.1511 6.81186 17.1511C6.48815 17.1511 6.1725 16.9874 5.99125 16.6904C4.32597 13.9569 3.56066 11.0588 3.22236 8.62016C3.67061 7.69882 4.24303 6.85184 4.9213 6.09792Z" fill="#1E1B16"/>
<path d="M4.9213 6.09792C5.02216 8.6185 5.56885 12.3066 7.63119 15.6916C7.90677 16.1441 7.76367 16.7347 7.31055 17.0111C7.1549 17.1061 6.98248 17.1511 6.81186 17.1511C6.48815 17.1511 6.1725 16.9874 5.99125 16.6904C4.32597 13.9569 3.56066 11.0588 3.22236 8.62016C3.67061 7.69882 4.24303 6.85184 4.9213 6.09792Z" fill="#1E1B16"/>
<path d="M10.1542 2.86925C10.9257 2.65959 11.7297 2.53453 12.5585 2.50099C11.369 4.18163 9.99228 7.52333 13.1177 11.9256C14.7322 10.5701 18.5254 8.24627 23.55 10.7428C23.7414 11.5139 23.8537 12.3146 23.8702 13.1402C18.4531 9.64557 14.7361 12.9362 13.9125 13.786C13.2217 19.5524 10.1259 21.8619 7.58088 22.7786C6.882 22.3748 6.23471 21.8949 5.64463 21.3513C7.8534 20.9885 11.2764 19.4781 12.0024 13.6467C8.45615 9.10285 8.9908 5.32237 10.1542 2.86925Z" fill="#1E1B16"/>
<path d="M13.8855 5.87303C15.132 4.58739 16.6867 3.99603 18.2844 3.85536C19.2837 4.41319 20.1807 5.12768 20.9551 5.95955C19.2929 5.56531 16.957 5.46227 15.2643 7.20935C15.0762 7.40378 14.8256 7.50119 14.5749 7.50119C14.3343 7.50119 14.093 7.4112 13.9068 7.23059C13.5261 6.86183 13.5168 6.25357 13.8855 5.87303Z" fill="#1E1B16"/>
<path d="M18.1975 22.9148C17.0694 23.5306 15.8174 23.9411 14.4935 24.124C16.0993 22.8509 18.2054 20.3914 18.4919 16.1267C18.5274 15.5973 18.9806 15.1923 19.5143 15.233C20.0431 15.2686 20.4431 15.7267 20.408 16.2555C20.215 19.1265 19.3021 21.2937 18.1975 22.9148Z" fill="#1E1B16"/>
</g>
<path id="Vector_2" d="M13.0012 26.1586C20.0704 26.1586 25.8012 20.4278 25.8012 13.3586C25.8012 6.28941 20.0704 0.558594 13.0012 0.558594C5.93199 0.558594 0.201172 6.28928 0.201172 13.3586C0.201172 20.4279 5.93199 26.1586 13.0012 26.1586ZM18.1975 22.9148C17.0694 23.5306 15.8174 23.9411 14.4935 24.124C16.0993 22.8509 18.2054 20.3914 18.4919 16.1267C18.5274 15.5973 18.9806 15.1923 19.5143 15.233C20.0431 15.2686 20.4431 15.7267 20.408 16.2555C20.215 19.1265 19.3021 21.2937 18.1975 22.9148ZM13.8855 5.87303C15.132 4.58739 16.6867 3.99603 18.2844 3.85536C19.2837 4.41319 20.1807 5.12768 20.9551 5.95955C19.2929 5.56531 16.957 5.46227 15.2643 7.20935C15.0762 7.40378 14.8256 7.50119 14.5749 7.50119C14.3343 7.50119 14.093 7.4112 13.9068 7.23059C13.5261 6.86183 13.5168 6.25357 13.8855 5.87303ZM10.1542 2.86925C10.9257 2.65959 11.7297 2.53453 12.5585 2.50099C11.369 4.18163 9.99228 7.52333 13.1177 11.9256C14.7322 10.5701 18.5254 8.24627 23.55 10.7428C23.7414 11.5139 23.8537 12.3146 23.8702 13.1402C18.4531 9.64557 14.7361 12.9362 13.9125 13.786C13.2217 19.5524 10.1259 21.8619 7.58088 22.7786C6.882 22.3748 6.23471 21.8949 5.64463 21.3513C7.8534 20.9885 11.2764 19.4781 12.0024 13.6467C8.45615 9.10285 8.9908 5.32237 10.1542 2.86925ZM4.9213 6.09792C5.02216 8.6185 5.56885 12.3066 7.63119 15.6916C7.90677 16.1441 7.76367 16.7347 7.31055 17.0111C7.1549 17.1061 6.98248 17.1511 6.81186 17.1511C6.48815 17.1511 6.1725 16.9874 5.99125 16.6904C4.32597 13.9569 3.56066 11.0588 3.22236 8.62016C3.67061 7.69882 4.24303 6.85184 4.9213 6.09792Z" fill="#00DAF4"/>
</g>
<defs>
<clipPath id="clip0_695_2005">
<rect width="25.6" height="25.6" fill="white" transform="translate(0.201172 0.558594)"/>
</clipPath>
</defs>
</svg>
