<svg width="48" height="48" viewBox="0 0 24 24" fill="none" xmlns="http://www.w3.org/2000/svg">
<path d="M19 4C18.875 4 18.7812 4.03125 18.6875 4.0625L9.1875 7.0625C8.78125 7.1875 8.5 7.5625 8.5 8V15.375C8.03125 15.1562 7.53125 15.0312 7 15C5.34375 15 4 16.125 4 17.5C4 18.9062 5.34375 20 7 20C8.53125 20 9.78125 19.0312 9.9375 17.7812C9.96875 17.7188 9.96875 17.625 9.96875 17.5312V12L18.4688 9.34375V13.375C18.0312 13.1562 17.5312 13.0312 17 13C15.3438 13 14 14.125 14 15.5C14 16.9062 15.3438 18 17 18C18.5312 18 19.7812 17.0312 19.9375 15.7812C19.9688 15.7188 19.9688 15.625 19.9688 15.5312C19.9688 15.5312 20 15.5312 20 15.5V5C20 4.46875 19.5312 4.03125 19 4ZM7 18.5C6.09375 18.5 5.5 18 5.5 17.5C5.5 17.0312 6.09375 16.5 7 16.5C7.875 16.5 8.5 17.0312 8.5 17.5C8.5 18 7.875 18.5 7 18.5ZM18.5 15.5C18.5 16 17.875 16.5 17 16.5C16.0938 16.5 15.5 16 15.5 15.5C15.5 15.0312 16.0938 14.5 17 14.5C17.875 14.5 18.5 15.0312 18.5 15.5ZM18.5 7.75L10 10.4375V8.375L18.5 5.6875V7.75Z" fill="#34A853"/>
</svg>
