<svg width="24" height="24" viewBox="0 0 24 24" fill="none" xmlns="http://www.w3.org/2000/svg">
<path d="M18 17.875C18 17.6875 17.8125 17.5 17.625 17.5H6.375C6.15625 17.5 6 17.6875 6 17.875V18.625C6 18.8438 6.15625 19 6.375 19H17.625C17.8125 19 18 18.8438 18 18.625V17.875ZM6.4375 9.96875C5.5 10.9062 6.15625 12.5 7.5 12.5H9.09375V15C9.09375 15.8438 9.78125 16.5 10.5938 16.5H13.375C14.1875 16.5 14.875 15.8438 14.875 15V12.5H16.5C17.8125 12.5 18.5 10.9062 17.5312 9.96875L13.0625 5.46875C12.4688 4.875 11.5 4.875 10.9375 5.46875L6.4375 9.96875ZM7.5 11L12 6.5L16.5 11H13.375V15H10.5938V11H7.5Z" fill="#ffffff"/>
</svg>
