<svg width="21" height="21" viewBox="0 0 21 21" fill="none" xmlns="http://www.w3.org/2000/svg">
<path d="M12.3493 6.76172L11.8285 7.28255C11.7243 7.41276 11.7243 7.59505 11.8545 7.72526L13.9378 9.73047H4.97949C4.7972 9.73047 4.66699 9.88672 4.66699 10.043V10.7721C4.66699 10.9544 4.7972 11.0846 4.97949 11.0846H13.9378L11.8545 13.1159C11.7243 13.2461 11.7243 13.4284 11.8285 13.5586L12.3493 14.0794C12.4795 14.1836 12.6618 14.1836 12.792 14.0794L16.2295 10.6419C16.3337 10.5117 16.3337 10.3294 16.2295 10.1992L12.792 6.76172C12.6618 6.65755 12.4795 6.65755 12.3493 6.76172Z" fill="#F2F2F2"/>
</svg>
