<svg width="37" height="37" viewBox="0 0 37 37" fill="none" xmlns="http://www.w3.org/2000/svg">
<path d="M30.5194 18.705C30.5194 12.2251 25.183 6.88867 18.7031 6.88867C12.1755 6.88867 6.88672 12.2251 6.88672 18.705C6.88672 25.2326 12.1755 30.5214 18.7031 30.5214C25.183 30.5214 30.5194 25.2326 30.5194 18.705ZM23.7536 17.0374C23.563 18.1809 22.9436 18.7527 22.086 18.9433C23.2772 19.5627 23.8489 20.468 23.2772 22.0879C22.5625 24.0891 20.9425 24.2797 18.7031 23.8509L18.179 25.995L16.8925 25.6614L17.4166 23.565C17.0831 23.4697 16.7019 23.3744 16.3684 23.2791L15.8443 25.4232L14.5578 25.0897L15.0819 22.9456C14.7961 22.8503 14.4625 22.755 14.1766 22.7073L12.4614 22.2785L13.1284 20.8015C13.1284 20.8015 14.0814 21.0397 14.0337 21.0397C14.4149 21.135 14.6055 20.8968 14.6531 20.7062L15.5108 17.3233C15.5584 17.3233 15.606 17.3233 15.6537 17.3709C15.606 17.3233 15.5584 17.3233 15.5108 17.3233L16.0825 14.8933C16.1302 14.6074 16.0349 14.2739 15.5108 14.131L14.5578 13.8927L14.8913 12.511L16.7019 12.9398V12.9874C16.9402 13.0351 17.226 13.0827 17.5119 13.178L18.036 11.0339L19.3701 11.3675L18.846 13.4639C19.1795 13.5116 19.5131 13.6068 19.8466 13.7021L20.3707 11.6057L21.6572 11.9392L21.1331 14.0833C22.8007 14.6074 23.9919 15.4651 23.7536 17.0374ZM20.7995 21.1827C21.1807 19.515 18.3696 19.0862 17.5119 18.848L16.7972 21.7068C17.6549 21.945 20.3707 22.8026 20.7995 21.1827ZM21.1807 17.0374C21.5619 15.5127 19.2272 15.1315 18.4648 14.9886L17.8454 17.5615C18.5601 17.7521 20.7995 18.4668 21.1807 17.0374Z" fill="#0060D9"/>
</svg>
