<svg width="25" height="25" viewBox="0 0 25 25" fill="none" xmlns="http://www.w3.org/2000/svg">
<path d="M12.5 5.20898C8.21875 5.20898 4.75 8.67773 4.75 12.959C4.75 17.2402 8.21875 20.709 12.5 20.709C16.7812 20.709 20.25 17.2402 20.25 12.959C20.25 8.67773 16.7812 5.20898 12.5 5.20898ZM12.5 19.209C9.03125 19.209 6.25 16.4277 6.25 12.959C6.25 9.52148 9.03125 6.70898 12.5 6.70898C15.9375 6.70898 18.75 9.52148 18.75 12.959C18.75 16.4277 15.9375 19.209 12.5 19.209ZM14.4062 15.959C14.5938 16.084 14.8125 16.0527 14.9375 15.8652L15.5312 15.084C15.6562 14.8965 15.625 14.6777 15.4375 14.5527L13.375 13.0215V8.58398C13.375 8.39648 13.1875 8.20898 13 8.20898H12C11.7812 8.20898 11.625 8.39648 11.625 8.58398V13.7402C11.625 13.834 11.6562 13.959 11.75 14.0215L14.4062 15.959Z" fill="#F2F2F2"/>
</svg>
