<svg width="30" height="30" viewBox="0 0 30 30" fill="none" xmlns="http://www.w3.org/2000/svg">
<path d="M19.4531 18.4766C19.375 18.5547 19.375 18.6328 19.375 18.7109V23.125H5.625V9.375H15.0391C15.1172 9.375 15.1953 9.375 15.2734 9.29688L16.5234 8.04688C16.7188 7.85156 16.5625 7.5 16.2891 7.5H5.625C4.57031 7.5 3.75 8.35938 3.75 9.375V23.125C3.75 24.1797 4.57031 25 5.625 25H19.375C20.3906 25 21.25 24.1797 21.25 23.125V17.4609C21.25 17.1875 20.8984 17.0312 20.7031 17.2266L19.4531 18.4766ZM25.5469 10.625C26.4453 9.72656 26.4453 8.28125 25.5469 7.38281L23.8672 5.70312C22.9688 4.80469 21.5234 4.80469 20.625 5.70312L10.3906 15.9375L10 19.4922C9.88281 20.5078 10.7422 21.3672 11.7578 21.25L15.3125 20.8594L25.5469 10.625ZM21.7188 11.7969L14.4531 19.0625L11.875 19.375L12.1875 16.7969L19.4531 9.53125L21.7188 11.7969ZM24.2188 8.71094C24.4141 8.86719 24.4141 9.10156 24.2578 9.29688L23.0469 10.5078L20.7812 8.20312L21.9531 7.03125C22.1094 6.83594 22.3828 6.83594 22.5391 7.03125L24.2188 8.71094Z" fill="#F2F2F2"/>
</svg>
