<svg width="24" height="24" viewBox="0 0 24 24" fill="none" xmlns="http://www.w3.org/2000/svg">
<path d="M12 8.5C11.6562 8.53125 11.3125 8.5625 11 8.65625C11.1562 8.90625 11.2188 9.21875 11.25 9.5C11.25 10.4688 10.4375 11.25 9.5 11.25C9.1875 11.25 8.875 11.1875 8.65625 11.0312C8.5625 11.3438 8.5 11.6562 8.5 12C8.5 13.9375 10.0625 15.5 12 15.5C13.9375 15.5 15.5 13.9375 15.5 12C15.5 10.0938 13.9375 8.53125 12 8.53125V8.5ZM20.875 11.5625C19.1875 8.25 15.8125 6 12 6C8.15625 6 4.78125 8.25 3.09375 11.5625C3.03125 11.6875 3 11.8438 3 12C3 12.1875 3.03125 12.3438 3.09375 12.4688C4.78125 15.7812 8.15625 18 12 18C15.8125 18 19.1875 15.7812 20.875 12.4688C20.9375 12.3438 20.9688 12.1875 20.9688 12.0312C20.9688 11.8438 20.9375 11.6875 20.875 11.5625ZM12 16.5C8.90625 16.5 6.0625 14.7812 4.5625 12C6.0625 9.21875 8.90625 7.5 12 7.5C15.0625 7.5 17.9062 9.21875 19.4062 12C17.9062 14.7812 15.0625 16.5 12 16.5Z" fill="#F2F2F2"/>
</svg>
