<svg className="svg-icon" width="30" height="30" viewBox="0 0 24 24" fill="none" xmlns="http://www.w3.org/2000/svg">
    <path d="M18.5625 12.9688C18.8438 12.5 19 12 19 11.4062C19 10.0312 17.8125 8.75 16.3125 8.75H15.1562C15.3125 8.34375 15.4375 7.875 15.4375 7.28125C15.4375 5 14.25 4 12.4688 4C10.5312 4 10.6562 6.96875 10.2188 7.40625C9.5 8.125 8.65625 9.5 8.0625 10H5C4.4375 10 4 10.4688 4 11V18.5C4 19.0625 4.4375 19.5 5 19.5H7C7.4375 19.5 7.84375 19.1875 7.9375 18.7812C9.34375 18.8125 10.3125 20 13.5 20C13.75 20 14 20 14.2188 20C16.625 20 17.6875 18.7812 17.7188 17.0312C18.1562 16.4688 18.375 15.6875 18.2812 14.9375C18.5938 14.375 18.6875 13.6875 18.5625 12.9688ZM16.625 14.6562C17.0312 15.3125 16.6562 16.1875 16.1875 16.4688C16.4375 17.9688 15.625 18.5 14.5312 18.5H13.3438C11.125 18.5 9.65625 17.3438 8 17.3438V11.5H8.3125C9.21875 11.5 10.4375 9.3125 11.2812 8.46875C12.1562 7.59375 11.875 6.09375 12.4688 5.5C13.9375 5.5 13.9375 6.53125 13.9375 7.28125C13.9375 8.5 13.0625 9.0625 13.0625 10.25H16.3125C16.9688 10.25 17.4688 10.8438 17.5 11.4375C17.5 12 17.0938 12.5938 16.7812 12.5938C17.2188 13.0625 17.3125 14.0312 16.625 14.6562ZM6.75 17.5C6.75 17.9375 6.40625 18.25 6 18.25C5.5625 18.25 5.25 17.9375 5.25 17.5C5.25 17.0938 5.5625 16.75 6 16.75C6.40625 16.75 6.75 17.0938 6.75 17.5Z" fill="#FEFEFE"/>
</svg>