<svg width="246" height="43" viewBox="0 0 246 43" fill="none" xmlns="http://www.w3.org/2000/svg">
<g clip-path="url(#clip0_8095_735)">
<path d="M45.6853 10.1621V14.9463H25.4443V10.1621H45.6853ZM33.0292 32.6111V18.2585H37.8134V32.6111H33.0292Z" fill="white"/>
<path d="M69.2932 10.1504V24.1902C69.3019 25.9758 68.6339 27.6984 67.4237 29.0112C66.9715 29.4928 66.4791 29.9348 65.9516 30.3324C63.7285 32.0121 60.9602 32.8048 58.185 32.5566C55.4098 32.3083 52.8262 31.0367 50.9365 28.9892C49.7296 27.6748 49.0644 25.9526 49.0743 24.1681V10.1504H53.8585V22.4569C53.8573 23.8455 54.3926 25.181 55.3527 26.1843C56.3128 27.1876 57.6234 27.7812 59.0108 27.841H59.4046C60.7923 27.7821 62.1034 27.1888 63.0637 26.1853C64.024 25.1818 64.559 23.8458 64.5568 22.4569V10.1504H69.2932Z" fill="white"/>
<path d="M90.8931 10.1215V32.611H89.7522L86.3849 29.2473L80.7321 23.5945L77.4678 20.3302L72.6836 15.546V10H73.8649L86.1052 22.2402V10.1215H90.8931ZM72.702 20.264L77.4862 25.0298V32.5815H72.702V20.264Z" fill="white"/>
<path d="M114.343 10.1621V14.9463H94.2783V10.1621H114.343ZM99.0478 27.8453H114.343V32.6111H94.2783V18.2254L99.0625 18.2548H112.355V23.039H99.0478V27.8453Z" fill="white"/>
<path d="M138.124 21.4272C138.123 21.9789 138.084 22.5299 138.006 23.076C137.642 25.5141 136.49 27.7661 134.726 29.4875C132.961 31.2089 130.681 32.3048 128.235 32.6076H117.721V18.2549H122.505V27.8234H127.871C129.374 27.5859 130.746 26.8284 131.748 25.683C132.75 24.5375 133.318 23.0768 133.354 21.5553C133.389 20.0338 132.89 18.5482 131.942 17.3573C130.995 16.1663 129.659 15.3457 128.169 15.0385C127.841 14.972 127.509 14.9314 127.175 14.917H117.721V10.1328L127.712 10.1696C130.544 10.3832 133.19 11.6597 135.119 13.7429C137.049 15.8261 138.12 18.5619 138.116 21.4015L138.124 21.4272Z" fill="white"/>
<path d="M159.384 27.8451V32.611H141.517V10H146.282V27.8451H159.384Z" fill="white"/>
<path d="M179.577 10.0996L178.536 11.5202L171.176 21.5781L170.951 21.8835L170.782 22.1154V32.5854H165.998V22.1485L165.821 21.9093L165.596 21.6038L158.236 11.5459L157.198 10.1254H163.087L163.351 10.4934L168.375 17.3569L173.398 10.4934L173.667 10.1254L179.577 10.0996Z" fill="white"/>
<path d="M183.044 30.8513C183.026 30.5743 183.066 30.2967 183.161 30.0358C183.256 29.7749 183.404 29.5365 183.595 29.3356C183.787 29.1347 184.018 28.9757 184.274 28.8686C184.53 28.7614 184.805 28.7085 185.083 28.7132C186.272 28.7132 187.089 29.5964 187.089 30.8513C187.089 32.1063 186.305 32.9932 185.05 32.9932C183.857 32.9858 183.044 32.0695 183.044 30.8513Z" fill="white"/>
<path d="M194.776 10.1172V32.6104H189.992V10.1172H194.776Z" fill="white"/>
<path d="M220.538 21.4282C220.538 23.6414 219.883 25.8051 218.653 27.6455C217.424 29.486 215.677 30.9205 213.632 31.7676C211.587 32.6147 209.337 32.8364 207.167 32.4045C204.996 31.9726 203.002 30.9067 201.438 29.3415C199.873 27.7762 198.808 25.7821 198.376 23.6113C197.945 21.4405 198.168 19.1906 199.015 17.1463C199.863 15.1019 201.298 13.3549 203.139 12.1263C204.98 10.8977 207.144 10.2427 209.357 10.2441C212.322 10.248 215.164 11.4277 217.26 13.5244C219.356 15.6211 220.535 18.4635 220.538 21.4282ZM209.357 14.9106C208.068 14.9106 206.808 15.2928 205.736 16.009C204.664 16.7252 203.829 17.7431 203.336 18.934C202.842 20.1249 202.713 21.4354 202.965 22.6997C203.216 23.964 203.837 25.1253 204.749 26.0368C205.66 26.9483 206.821 27.569 208.086 27.8205C209.35 28.072 210.66 27.9429 211.851 27.4496C213.042 26.9563 214.06 26.121 214.776 25.0491C215.493 23.9773 215.875 22.7172 215.875 21.4282C215.874 19.6999 215.187 18.0427 213.965 16.8206C212.743 15.5986 211.085 14.9116 209.357 14.9106Z" fill="white"/>
</g>
<defs>
<clipPath id="clip0_8095_735">
<rect width="195.075" height="22.9863" fill="white" transform="translate(25.4629 10)"/>
</clipPath>
</defs>
</svg>
