<svg width="24" height="25" viewBox="0 0 24 25" fill="none" xmlns="http://www.w3.org/2000/svg">
<path d="M19.75 13C19.7188 8.71875 16.25 5.25 12 5.25C9.84375 5.25 7.875 6.15625 6.46875 7.5625L5.0625 6.15625C4.84375 5.9375 4.4375 6.09375 4.4375 6.4375V10.375C4.4375 10.5938 4.59375 10.75 4.8125 10.75H8.8125C9.15625 10.75 9.3125 10.3438 9.09375 10.125L7.5625 8.625C8.6875 7.46875 10.25 6.75 12 6.75C15.4375 6.75 18.25 9.5625 18.25 13C18.25 16.4688 15.4375 19.25 12 19.25C10.375 19.25 8.9375 18.6562 7.8125 17.6875C7.6875 17.5625 7.4375 17.5625 7.3125 17.6875L6.78125 18.2188C6.625 18.375 6.625 18.625 6.78125 18.7812C8.15625 20 10 20.7812 12 20.75C16.25 20.75 19.75 17.2812 19.75 13ZM14.5 15.8125L14.9688 15.2188C15.0625 15.0312 15.0312 14.8125 14.875 14.6875L12.75 13.125V8.625C12.75 8.4375 12.5625 8.25 12.375 8.25H11.625C11.4062 8.25 11.25 8.4375 11.25 8.625V13.9062L14 15.9062C14.1562 16.0312 14.4062 16 14.5 15.8125Z" fill="#A4A4A4"/>
</svg>
