<svg width="31" height="31" viewBox="0 0 31 31" fill="none" xmlns="http://www.w3.org/2000/svg">
<path d="M26.5156 15.6738L16.8672 7.74414C16.5156 7.43164 16.0078 7.27539 15.5 7.27539C14.9531 7.27539 14.4453 7.43164 14.0938 7.74414L4.44531 15.6738C4.32812 15.791 4.25 15.9473 4.25 16.1426C4.25 16.2988 4.28906 16.4551 4.36719 16.5332L4.79688 17.041C4.875 17.1582 5.07031 17.2363 5.26562 17.2363C5.42188 17.2363 5.53906 17.1973 5.65625 17.1191L6.75 16.2207V23.4863C6.75 24.1895 7.29688 24.7363 8 24.7363H13C13.6641 24.7363 14.2109 24.1895 14.25 23.4863V19.4238H16.75V23.4863C16.75 24.1895 17.2969 24.7363 18 24.7363H23C23.6641 24.7363 24.2109 24.1895 24.25 23.5254V16.2207L25.3047 17.1191C25.4219 17.1973 25.5391 17.2754 25.6953 17.2754C25.8906 17.2754 26.0859 17.1582 26.2031 17.041L26.5938 16.5332C26.6719 16.4551 26.75 16.2988 26.75 16.1426C26.75 15.9473 26.6328 15.791 26.5156 15.6738ZM22.3359 22.8613H18.625V18.7988C18.5859 18.1348 18.0391 17.5879 17.375 17.5488H13.625C12.9219 17.5879 12.375 18.1348 12.375 18.7988V22.8613H8.625V14.6973L15.5 9.0332L22.375 14.6973L22.3359 22.8613Z" fill="#A4A4A4"/>
</svg>
