<svg width="150" height="150" viewBox="0 0 24 24" fill="none" xmlns="http://www.w3.org/2000/svg">
<path d="M18.5 6H5.5C4.65625 6 4 6.6875 4 7.5V16.5C4 17.3438 4.65625 18 5.5 18H18.5C19.3125 18 20 17.3438 20 16.5V7.5C20 6.6875 19.3125 6 18.5 6ZM18.3125 16.5H5.6875C5.5625 16.5 5.5 16.4375 5.5 16.3125V7.6875C5.5 7.59375 5.5625 7.5 5.6875 7.5H18.3125C18.4062 7.5 18.5 7.59375 18.5 7.6875V16.3125C18.5 16.4375 18.4062 16.5 18.3125 16.5ZM8 8.75C7.28125 8.75 6.75 9.3125 6.75 10C6.75 10.7188 7.28125 11.25 8 11.25C8.6875 11.25 9.25 10.7188 9.25 10C9.25 9.3125 8.6875 8.75 8 8.75ZM7 15H17V12.5L14.25 9.78125C14.0938 9.625 13.875 9.625 13.7188 9.78125L10 13.5L8.75 12.2812C8.59375 12.125 8.375 12.125 8.21875 12.2812L7 13.5V15Z" fill="#ffffff"/>
</svg>
