<svg width="34" height="34" viewBox="0 0 34 34" fill="none" xmlns="http://www.w3.org/2000/svg">
<path d="M23.7188 20.3438C23.1251 19.6875 21.9688 18.7188 21.9688 15.5C21.9688 13.0938 20.2813 11.1562 17.9688 10.6562V10C17.9688 9.46875 17.5313 9 17.0001 9C16.4376 9 16.0001 9.46875 16.0001 10V10.6562C13.6876 11.1562 12.0001 13.0938 12.0001 15.5C12.0001 18.7188 10.8438 19.6875 10.2501 20.3438C10.0626 20.5312 9.96881 20.7812 10.0001 21C10.0001 21.5312 10.3751 22 11.0001 22H22.9688C23.5938 22 23.9688 21.5312 24.0001 21C24.0001 20.7812 23.9063 20.5312 23.7188 20.3438ZM12.0938 20.5C12.7501 19.6562 13.4688 18.1875 13.5001 15.5312C13.5001 15.5312 13.5001 15.5312 13.5001 15.5C13.5001 13.5938 15.0626 12 17.0001 12C18.9063 12 20.5001 13.5938 20.5001 15.5C20.5001 15.5312 20.4688 15.5312 20.4688 15.5312C20.5001 18.1875 21.2188 19.6562 21.8751 20.5H12.0938ZM17.0001 25C18.0938 25 18.9688 24.125 18.9688 23H15.0001C15.0001 24.125 15.8751 25 17.0001 25Z" fill="#F2F2F2"/>
</svg>
