<svg width="24" height="25" viewBox="0 0 24 25" fill="none" xmlns="http://www.w3.org/2000/svg">
<path d="M12 11.459C11.1562 11.459 10.5 12.1465 10.5 12.959C10.5 13.8027 11.1562 14.459 12 14.459C12.8125 14.459 13.5 13.8027 13.5 12.959C13.5 12.1465 12.8125 11.459 12 11.459ZM10.5 8.20898C10.5 9.05273 11.1562 9.70898 12 9.70898C12.8125 9.70898 13.5 9.05273 13.5 8.20898C13.5 7.39648 12.8125 6.70898 12 6.70898C11.1562 6.70898 10.5 7.39648 10.5 8.20898ZM10.5 17.709C10.5 18.5527 11.1562 19.209 12 19.209C12.8125 19.209 13.5 18.5527 13.5 17.709C13.5 16.8965 12.8125 16.209 12 16.209C11.1562 16.209 10.5 16.8965 10.5 17.709Z" fill="#A4A4A4"/>
</svg>
