<svg width="30" height="30" viewBox="0 0 30 30" fill="none" xmlns="http://www.w3.org/2000/svg">
<path d="M18.4766 16.875C17.3438 16.875 16.8359 17.5 15 17.5C13.125 17.5 12.6172 16.875 11.4844 16.875C8.59375 16.875 6.25 19.2578 6.25 22.1484V23.125C6.25 24.1797 7.07031 25 8.125 25H21.875C22.8906 25 23.75 24.1797 23.75 23.125V22.1484C23.75 19.2578 21.3672 16.875 18.4766 16.875ZM21.875 23.125H8.125V22.1484C8.125 20.2734 9.60938 18.75 11.4844 18.75C12.0703 18.75 12.9688 19.375 15 19.375C16.9922 19.375 17.8906 18.75 18.4766 18.75C20.3516 18.75 21.875 20.2734 21.875 22.1484V23.125ZM15 16.25C18.0859 16.25 20.625 13.75 20.625 10.625C20.625 7.53906 18.0859 5 15 5C11.875 5 9.375 7.53906 9.375 10.625C9.375 13.75 11.875 16.25 15 16.25ZM15 6.875C17.0312 6.875 18.75 8.59375 18.75 10.625C18.75 12.6953 17.0312 14.375 15 14.375C12.9297 14.375 11.25 12.6953 11.25 10.625C11.25 8.59375 12.9297 6.875 15 6.875Z" fill="#F2F2F2"/>
</svg>
