<svg width="40" height="40" viewBox="0 0 40 40" fill="none" xmlns="http://www.w3.org/2000/svg">
<rect width="40" height="40" rx="20" fill="black" fill-opacity="0.95"/>
<path d="M20 18.125C18.9453 18.125 18.125 18.9844 18.125 20C18.125 21.0547 18.9453 21.875 20 21.875C21.0156 21.875 21.875 21.0547 21.875 20C21.875 18.9844 21.0156 18.125 20 18.125ZM18.125 14.0625C18.125 15.1172 18.9453 15.9375 20 15.9375C21.0156 15.9375 21.875 15.1172 21.875 14.0625C21.875 13.0469 21.0156 12.1875 20 12.1875C18.9453 12.1875 18.125 13.0469 18.125 14.0625ZM18.125 25.9375C18.125 26.9922 18.9453 27.8125 20 27.8125C21.0156 27.8125 21.875 26.9922 21.875 25.9375C21.875 24.9219 21.0156 24.0625 20 24.0625C18.9453 24.0625 18.125 24.9219 18.125 25.9375Z" fill="#F2F2F2"/>
</svg>
