<svg width="21" height="20" viewBox="0 0 21 20" fill="none" xmlns="http://www.w3.org/2000/svg">
<path d="M15.6927 6.71883L13.5312 4.55737C13.2968 4.323 12.9843 4.16675 12.6458 4.16675H5.66663C4.9635 4.16675 4.41663 4.73966 4.41663 5.41675V14.5834C4.41663 15.2865 4.9635 15.8334 5.66663 15.8334H14.8333C15.5104 15.8334 16.0833 15.2865 16.0833 14.5834V7.60425C16.0833 7.26571 15.927 6.95321 15.6927 6.71883ZM11.5 5.41675V7.50008H8.16663V5.41675H11.5ZM14.677 14.5834H5.82288C5.71871 14.5834 5.66663 14.5313 5.66663 14.4272V5.573C5.66663 5.49487 5.71871 5.41675 5.82288 5.41675H6.91663V8.12508C6.91663 8.48966 7.17704 8.75008 7.54163 8.75008H12.125C12.4635 8.75008 12.75 8.48966 12.75 8.12508V5.52091L14.7812 7.57821C14.8073 7.60425 14.8333 7.63029 14.8333 7.68237V14.4272C14.8333 14.5313 14.7552 14.5834 14.677 14.5834ZM10.25 9.37508C8.97392 9.37508 7.95829 10.4167 7.95829 11.6667C7.95829 12.9428 8.97392 13.9584 10.25 13.9584C11.5 13.9584 12.5416 12.9428 12.5416 11.6667C12.5416 10.4167 11.5 9.37508 10.25 9.37508ZM10.25 12.7084C9.651 12.7084 9.20829 12.2657 9.20829 11.6667C9.20829 11.0938 9.651 10.6251 10.25 10.6251C10.8229 10.6251 11.2916 11.0938 11.2916 11.6667C11.2916 12.2657 10.8229 12.7084 10.25 12.7084Z" fill="#F2F2F2"/>
</svg>
