<svg width="24" height="24" viewBox="0 0 24 24" fill="none" xmlns="http://www.w3.org/2000/svg">
<path d="M19.875 18.6562L16.0938 14.875C16 14.8125 15.9062 14.75 15.8125 14.75H15.4062C16.375 13.625 17 12.125 17 10.5C17 6.9375 14.0625 4 10.5 4C6.90625 4 4 6.9375 4 10.5C4 14.0938 6.90625 17 10.5 17C12.125 17 13.5938 16.4062 14.75 15.4375V15.8438C14.75 15.9375 14.7812 16.0312 14.8438 16.125L18.625 19.9062C18.7812 20.0625 19.0312 20.0625 19.1562 19.9062L19.875 19.1875C20.0312 19.0625 20.0312 18.8125 19.875 18.6562ZM10.5 15.5C7.71875 15.5 5.5 13.2812 5.5 10.5C5.5 7.75 7.71875 5.5 10.5 5.5C13.25 5.5 15.5 7.75 15.5 10.5C15.5 13.2812 13.25 15.5 10.5 15.5Z" fill="#333333"/>
</svg>
