<svg width="40" height="40" viewBox="0 0 40 40" fill="none" xmlns="http://www.w3.org/2000/svg">
<rect width="40" height="40" rx="20" fill="black" fill-opacity="0.95"/>
<path d="M25 22.5C23.9844 22.5 23.0859 22.8906 22.3828 23.5547L18.5547 21.1328C18.7891 20.4297 18.7891 19.6094 18.5547 18.9062L22.3828 16.4844C23.0859 17.1094 23.9844 17.5 25 17.5C27.0703 17.5 28.75 15.8203 28.75 13.75C28.75 11.6797 27.0703 10 25 10C22.9297 10 21.25 11.6797 21.25 13.75C21.25 14.1406 21.2891 14.5312 21.4062 14.8828L17.5781 17.3047C16.875 16.6406 15.9766 16.25 15 16.25C12.9297 16.25 11.25 17.9297 11.25 20C11.25 22.0703 12.9297 23.75 15 23.75C15.9766 23.75 16.875 23.3594 17.5781 22.7344L21.4062 25.1562C21.2891 25.5078 21.25 25.8984 21.25 26.25C21.25 28.3203 22.9297 30 25 30C27.0703 30 28.75 28.3203 28.75 26.25C28.75 24.1797 27.0703 22.5 25 22.5ZM25 11.875C26.0156 11.875 26.875 12.7344 26.875 13.75C26.875 14.8047 26.0156 15.625 25 15.625C23.9453 15.625 23.125 14.8047 23.125 13.75C23.125 12.7344 23.9453 11.875 25 11.875ZM15 21.875C13.9453 21.875 13.125 21.0547 13.125 20C13.125 18.9844 13.9453 18.125 15 18.125C16.0156 18.125 16.875 18.9844 16.875 20C16.875 21.0547 16.0156 21.875 15 21.875ZM25 28.125C23.9453 28.125 23.125 27.3047 23.125 26.25C23.125 25.2344 23.9453 24.375 25 24.375C26.0156 24.375 26.875 25.2344 26.875 26.25C26.875 27.3047 26.0156 28.125 25 28.125Z" fill="#F2F2F2"/>
</svg>
