<svg width="30" height="30" viewBox="0 0 30 30" fill="none" xmlns="http://www.w3.org/2000/svg">
<path d="M8.75 7.5C6.67969 7.5 5 9.17969 5 11.25V18.75C5 20.8203 6.67969 22.5 8.75 22.5H12.0312C12.2656 22.5 12.5 22.3047 12.5 22.0312V21.0938C12.5 20.8594 12.2656 20.625 12.0312 20.625H8.75C7.69531 20.625 6.875 19.8047 6.875 18.75V11.25C6.875 10.2344 7.69531 9.375 8.75 9.375H12.0312C12.2656 9.375 12.5 9.17969 12.5 8.90625V7.96875C12.5 7.73438 12.2656 7.5 12.0312 7.5H8.75ZM17.7734 8.28125L16.9922 9.0625C16.7969 9.21875 16.7969 9.53125 16.9922 9.72656L21.4062 13.9844H11.7188C11.4453 13.9844 11.25 14.2188 11.25 14.4531V15.5469C11.25 15.8203 11.4453 16.0156 11.7188 16.0156H21.4062L16.9922 20.3125C16.7969 20.5078 16.7969 20.8203 16.9922 20.9766L17.7734 21.7578C17.9297 21.9531 18.2422 21.9531 18.4375 21.7578L24.8438 15.3516C25.0391 15.1562 25.0391 14.8828 24.8438 14.6875L18.4375 8.28125C18.2422 8.08594 17.9297 8.08594 17.7734 8.28125Z" fill="#F2F2F2"/>
</svg>
