<svg width="30" height="30" viewBox="0 0 30 30" fill="none" xmlns="http://www.w3.org/2000/svg">
<path d="M18.3203 12.1094L17.8906 11.6797C17.6562 11.4453 17.2266 11.4453 16.9922 11.6797L11.6406 17.0312C11.4062 17.2656 11.4062 17.6953 11.6406 17.9297L12.0703 18.3594C12.3047 18.5938 12.7344 18.5938 12.9688 18.3594L18.3203 13.0078C18.5547 12.7734 18.5547 12.3438 18.3203 12.1094ZM12.5 13.75C13.1641 13.75 13.75 13.2031 13.75 12.5C13.75 11.8359 13.1641 11.25 12.5 11.25C11.7969 11.25 11.25 11.8359 11.25 12.5C11.25 13.2031 11.7969 13.75 12.5 13.75ZM17.5 16.25C16.7969 16.25 16.25 16.8359 16.25 17.5C16.25 18.2031 16.7969 18.75 17.5 18.75C18.1641 18.75 18.75 18.2031 18.75 17.5C18.75 16.8359 18.1641 16.25 17.5 16.25ZM25 15C25 13.5938 24.2578 12.3438 23.1641 11.6406C23.4375 10.3516 23.0469 8.94531 22.0703 7.92969C21.0547 6.95312 19.6484 6.5625 18.3594 6.83594C17.6562 5.74219 16.4062 5 15 5C13.5547 5 12.3047 5.74219 11.6016 6.83594C10.3125 6.5625 8.90625 6.95312 7.92969 7.92969C6.91406 8.94531 6.52344 10.3516 6.79688 11.6406C5.70312 12.3438 5 13.5938 5 15C5 16.4453 5.70312 17.6953 6.79688 18.3984C6.52344 19.6875 6.91406 21.0938 7.92969 22.0703C8.90625 23.0859 10.3125 23.4766 11.6016 23.2031C12.3047 24.2969 13.5547 25 15 25C16.4062 25 17.6562 24.2969 18.3594 23.2031C19.6484 23.4766 21.0547 23.0859 22.0703 22.0703C23.0469 21.0938 23.4375 19.6875 23.1641 18.3984C24.2578 17.6953 25 16.4453 25 15ZM20.7422 17.4219C21.0938 18.2031 21.9531 19.5703 20.7422 20.7812C19.6484 21.875 18.5547 21.3281 17.3828 20.7812C17.0703 21.6016 16.6797 23.125 15 23.125C13.2031 23.125 12.8516 21.4844 12.5781 20.7812C11.7578 21.1719 10.4297 21.9531 9.21875 20.7422C7.96875 19.4922 8.90625 18.0859 9.21875 17.4219C8.39844 17.1094 6.875 16.7188 6.875 15C6.875 13.2422 8.51562 12.8906 9.21875 12.6172C8.86719 11.8359 8.04688 10.4688 9.25781 9.25781C10.5078 8.00781 11.9141 8.94531 12.5781 9.25781C12.8906 8.4375 13.2812 6.875 15 6.875C16.7578 6.875 17.1094 8.55469 17.3828 9.25781C18.1641 8.90625 19.5312 8.08594 20.7422 9.29688C21.9922 10.5469 21.0547 11.9531 20.7422 12.6172C21.5625 12.9297 23.0859 13.3203 23.0859 15.0391C23.0859 16.7969 21.4453 17.1484 20.7422 17.4219Z" fill="#F2F2F2"/>
</svg>
